<svg xmlns="http://www.w3.org/2000/svg" xmlns:xlink="http://www.w3.org/1999/xlink" version="1.1" x="0px" y="0px" viewBox="0 0 39 37" enable-background="new 0 0 39 37" xml:space="preserve" width="39" height="37"><style>.style0{fill:	#F3F3F3;}.style1{fill-rule:	evenodd;clip-rule:	evenodd;fill:	#7F7F7F;}</style><rect x="0" width="39" height="37" class="style0"/><path d="M22.5 22.4h-2.1v2.1h2.1V22.4z M19.6 16.8l-2.1 0v2.1h2.1V16.8z M22.5 19.6h-2.1v2.1l2.1 0V19.6z M25.5 16.8h-2.1v2.1h2.1V16.8z M19.6 19.6h-2.1l0 2.1h2.1V19.6z M22.5 16.8h-2.1v2.1h2.1V16.8z M25.5 19.6h-2.1v2.1h2.1V19.6z M13.7 22.4h-2.1v2.1h2.1V22.4z M13.7 19.6l-2.1 0v2.1h2.1V19.6z M24.9 9.5v0.9 c0.4 0.3 0.6 0.8 0.6 1.3c0 1-0.8 1.7-1.7 1.7c-1 0-1.7-0.8-1.7-1.7c0-0.5 0.2-1 0.6-1.3V9.5h-8.1v0.9c0.4 0.3 0.6 0.8 0.6 1.3 c0 1-0.8 1.7-1.7 1.7c-1 0-1.7-0.8-1.7-1.7c0-0.5 0.2-1 0.6-1.3V9.5l-3.9 0l0 18.4h20.2l0-18.4H24.9z M26.8 26.1H10.2l0-11.5h16.5 L26.8 26.1z M16.7 16.8h-2.1v2.1h2.1V16.8z M16.7 22.4h-2.1l0 2.1h2.1V22.4z M19.6 22.4l-2.1 0v2.1h2.1L19.6 22.4z M16.7 19.6h-2.1 v2.1h2.1V19.6z M13.4 12.7c0.5 0 0.9-0.4 0.9-0.9V8.7c0-0.5-0.4-0.9-0.9-0.9c-0.5 0-0.9 0.4-0.9 0.9l0 3.1 C12.5 12.3 12.9 12.7 13.4 12.7z M23.8 12.7c0.5 0 0.9-0.4 0.9-0.9V8.7c0-0.5-0.4-0.9-0.9-0.9c-0.5 0-0.9 0.4-0.9 0.9v3.1 C22.9 12.3 23.3 12.7 23.8 12.7z" class="style1"/></svg>
