<?xml version="1.0" encoding="utf-8"?>
<!-- Generator: Adobe Illustrator 18.1.0, SVG Export Plug-In . SVG Version: 6.00 Build 0)  -->
<svg version="1.1" id="Ebene_1" xmlns="http://www.w3.org/2000/svg" xmlns:xlink="http://www.w3.org/1999/xlink" x="0px" y="0px"
	 viewBox="0 0 164 28.1" enable-background="new 0 0 164 28.1" xml:space="preserve">
<g>
	<path fill="#FFFFFF" d="M0,5.3l8.6,0c2.1,0,3.8,0.6,4.8,1.6c0.8,0.8,1.3,1.9,1.3,3.1v0.1c0,2.1-1.1,3.3-2.4,4
		c2.1,0.8,3.5,2.1,3.5,4.5v0.1c0,3.4-2.8,5.1-6.9,5.1l-8.8,0V5.3z M10.7,10.8c0-1.2-1-1.9-2.7-1.9l-4,0v3.9l3.8,0
		C9.5,12.8,10.7,12.2,10.7,10.8L10.7,10.8z M8.7,16.2H4v4.1l4.8,0c1.8,0,2.9-0.6,2.9-2v-0.1C11.7,17,10.8,16.2,8.7,16.2z"/>
	<path fill="#FFFFFF" d="M18.4,5.3l4.1,0v14.8h9.2v3.7l-13.3,0V5.3z"/>
	<path fill="#FFFFFF" d="M42.3,5.2l3.8,0L54,23.8h-4.3L48,19.7h-7.8l-1.7,4.2h-4.2L42.3,5.2z M46.6,16.1l-2.5-6l-2.5,6L46.6,16.1z"
		/>
	<path fill="#FFFFFF" d="M54.3,14.6L54.3,14.6c0-5.3,4-9.6,9.7-9.6c3.5,0,5.6,1.2,7.3,2.9l-2.6,3c-1.4-1.3-2.9-2.1-4.7-2.1
		c-3.1,0-5.4,2.6-5.4,5.8v0.1c0,3.2,2.2,5.8,5.4,5.8c2.1,0,3.4-0.8,4.9-2.2l2.6,2.6c-1.9,2-4,3.3-7.6,3.3
		C58.4,24.1,54.3,19.9,54.3,14.6z"/>
	<path fill="#FFFFFF" d="M74.4,5.3l4.1,0v8.1L86,5.3l4.9,0l-7.5,7.9l7.9,10.7h-4.9l-5.7-7.9l-2.1,2.2v5.7h-4.1V5.3z"/>
	<path fill="#FFFFFF" d="M93.5,5.3l3.3,0v15.6h9.7v3l-13,0V5.3z"/>
	<path fill="#FFFFFF" d="M117,5.2l3,0l8.1,18.6h-3.4l-1.9-4.5l-8.8,0l-1.9,4.5l-3.3,0L117,5.2z M121.6,16.5l-3.2-7.4l-3.2,7.4H121.6
		z"/>
	<path fill="#FFFFFF" d="M130.6,5.3l3,0l9.9,12.8V5.3l3.2,0v18.5H144l-10.2-13.2v13.2h-3.2V5.3z"/>
	<path fill="#FFFFFF" d="M150.1,5.3l13.7,0v2.9l-10.5,0V13l9.3,0v2.9l-9.3,0v5l10.6,0v2.9l-13.9,0V5.3z"/>
</g>
</svg>
