<svg xmlns="http://www.w3.org/2000/svg" xmlns:xlink="http://www.w3.org/1999/xlink" version="1.1" x="0px" y="0px" viewBox="0 0 39 37" enable-background="new 0 0 39 37" xml:space="preserve" width="39" height="37"><style>.style0{fill:	#F3F3F3;}.style1{fill:	#7F7F7F;}</style><rect x="0" width="39" height="37" class="style0"/><g><g><g><g><path d="M18.5 9.8c4.8 0 8.6 3.9 8.6 8.6c0 4.8-3.9 8.6-8.6 8.6c-4.8 0-8.6-3.9-8.6-8.6 C9.9 13.6 13.7 9.8 18.5 9.8 M18.5 12.4c-3.3 0-6 2.7-6 6c0 3.3 2.7 6 6 6c3.3 0 6-2.7 6-6C24.5 15.1 21.8 12.4 18.5 12.4 L18.5 12.4z" class="style1"/></g></g></g><g><path d="M20.1 21.1l-2.3-2.4v-4.8c0-0.4 0.3-0.7 0.7-0.7l0 0c0.4 0 0.7 0.3 0.7 0.7l0 0l0 4.2l1.9 1.9 c0.3 0.3 0.3 0.8 0 1.1l0 0c-0.1 0.1-0.3 0.2-0.5 0.2l0 0C20.4 21.3 20.2 21.2 20.1 21.1L20.1 21.1z" class="style1"/></g></g></svg>
